<svg width="537" height="527" viewBox="0 0 537 527" fill="none" xmlns="http://www.w3.org/2000/svg">
<path d="M532.326 323.027C521.238 312.269 491.143 279.186 485.138 255.61C480.041 235.594 485.665 213.523 466.458 189.733C476.075 154.538 455.517 118.581 421.988 108.863C411.969 70.1671 371.676 47.4701 333.816 60.7758C299.56 19.6822 237.673 19.4012 203.184 60.7758C165.329 47.4711 125.032 70.163 115.012 108.863C81.5389 118.566 60.9085 154.48 70.542 189.733C51.3495 213.506 56.9502 235.627 51.8634 255.607C45.8778 279.104 15.7649 312.244 4.67357 323.026C-3.85654 331.3 -0.166765 345.558 11.3556 348.835C12.6992 349.217 29.3388 353.794 53.6233 353.794C73.5542 353.794 98.6379 350.701 124.622 339.679L151.016 417.688C158.908 440.998 174.419 460.934 195.872 475.339C264.111 521.159 361.05 491.395 385.988 417.685L412.382 339.68C438.366 350.703 463.447 353.796 483.38 353.795C507.659 353.795 524.304 349.218 525.648 348.836C537.165 345.56 540.86 331.303 532.326 323.027ZM129.944 137.379C137.62 136.768 143.717 130.795 144.352 123.263C146.728 95.0801 176.665 78.6258 199.876 93.4024C207.449 98.2226 217.622 95.814 222.106 88.0933C243.338 51.5276 293.705 51.6068 314.892 88.0933C319.371 95.8058 329.54 98.2277 337.122 93.4024C360.357 78.6104 390.273 95.1048 392.646 123.263C393.28 130.795 399.378 136.769 407.054 137.379C424.049 138.73 437.36 153.968 437.36 172.068C437.36 180.779 434.3 189.12 428.739 195.555C413.771 212.89 387.425 209.743 376.251 189.679C369.973 177.3 351.492 178.665 347.178 191.826C343.04 203.293 332.56 210.976 321.012 210.976C307.599 210.976 296.027 200.817 293.497 186.819C292.148 179.357 285.532 174.074 278.024 174.074C275.219 174.074 270.024 175.484 261.249 174.236C252.85 173.039 244.986 178.611 243.502 186.819C240.972 200.817 229.4 210.976 215.987 210.976C204.469 210.976 194.014 203.331 189.852 191.913C185.632 178.736 167.19 177.253 160.811 189.565C154.919 200.237 144.077 206.854 132.449 206.854C114.262 206.854 99.6395 191.175 99.6395 172.068C99.6385 153.968 112.951 138.73 129.944 137.379ZM47.3335 322.708C60.9357 306.489 77.0782 283.936 82.3884 263.094C86.7537 245.944 85.1458 231.744 88.8995 220.364C95.074 226.187 102.271 230.689 110.127 233.65C110.127 299.485 109.806 295.899 110.93 299.217L114.655 310.224C89.619 321.38 65.1227 323.376 47.3335 322.708ZM356.123 407.955C345.608 439.032 316.548 460.022 284.232 465.025V405.731L304.795 385.55C310.939 379.521 310.939 369.745 304.795 363.716C298.652 357.686 288.69 357.686 282.546 363.716L268.499 377.502L254.452 363.716C248.309 357.686 238.347 357.686 232.203 363.716C226.059 369.745 226.059 379.521 232.203 385.55L252.767 405.731V465.035C219.018 459.855 191.122 438.22 180.876 407.955L141.592 291.849V237.052C153.175 235.35 164.002 230.466 172.958 223.044C201.129 253.094 249.547 246.006 268.499 209.719C287.481 246.062 335.91 253.052 364.041 223.044C372.997 230.466 383.824 235.35 395.407 237.052V291.849L356.123 407.955ZM422.344 310.224C426.179 298.893 426.872 297.66 426.872 294.348V233.647C434.736 230.683 441.931 226.18 448.099 220.363C451.848 231.724 450.247 245.952 454.612 263.096C459.921 283.937 476.061 306.487 489.663 322.706C471.879 323.378 447.376 321.378 422.344 310.224Z" fill="black" fill-opacity="0.25"/>
<path d="M209.766 260.382C201.077 260.382 194.033 267.295 194.033 275.822V292.29C194.033 300.817 201.077 307.73 209.766 307.73C218.454 307.73 225.498 300.817 225.498 292.29V275.822C225.498 267.294 218.454 260.382 209.766 260.382Z" fill="black" fill-opacity="0.25"/>
<path d="M327.234 260.382C318.546 260.382 311.502 267.295 311.502 275.822V292.29C311.502 300.817 318.546 307.73 327.234 307.73C335.923 307.73 342.967 300.817 342.967 292.29V275.822C342.967 267.294 335.923 260.382 327.234 260.382Z" fill="black" fill-opacity="0.25"/>
</svg>
