<svg width="50" height="50" viewBox="0 0 50 50" fill="none" xmlns="http://www.w3.org/2000/svg">
<path d="M50 11.9783C50 10.1049 49.4227 8.24346 48.3742 6.73693L43.6859 0H30.6987C28.2529 0 26.2631 2.11971 26.2631 4.7251C26.2631 7.3305 28.2529 9.4501 30.6987 9.4501H31.3411L28.9022 12.0703H9.66797C4.33701 12.0703 0 16.6773 0 22.34V30.8652C0 33.4191 1.1668 35.6884 2.96348 37.1047V50H11.7511V37.0299C13.3028 35.7658 14.3661 33.8578 14.5816 31.6844H22.4103C22.6295 33.8955 23.7254 35.833 25.3213 37.0961V50H34.1089V37.0765C35.7307 35.7821 36.8321 33.7901 37.0119 31.5229C40.0989 30.819 42.4202 27.8976 42.4202 24.4112V16.3177H50V11.9783ZM8.82139 46.888H5.89316V38.4837C6.35215 38.58 6.82607 38.6316 7.31133 38.6316C7.829 38.6316 8.33389 38.5733 8.82139 38.4641V46.888ZM31.1792 46.888H28.251V38.4815C28.7136 38.5794 29.1914 38.6316 29.6807 38.6316H29.7267C30.224 38.6316 30.7096 38.5775 31.1793 38.4765V46.888H31.1792ZM39.4905 24.4111C39.4905 26.7056 37.7332 28.5724 35.573 28.5724H34.1082V30.8654C34.1082 33.4317 32.1427 35.5197 29.7267 35.5197H29.6807C27.2646 35.5197 25.299 33.4318 25.299 30.8654V25.4424H22.3693V28.5724H14.6227V25.4424H11.693V30.8654C11.693 33.4317 9.72744 35.5197 7.31133 35.5197C4.89521 35.5197 2.92969 33.4317 2.92969 30.8654V22.3401C2.92969 18.3934 5.95244 15.1825 9.66797 15.1825H30.1257L33.3853 11.6804C33.401 14.2402 35.3655 16.3177 37.779 16.3177H39.4904V24.4111H39.4905ZM47.0703 13.2056H37.779C36.9713 13.2056 36.3142 12.5076 36.3142 11.6496V6.33807H30.6987C29.8684 6.33807 29.1928 5.61442 29.1928 4.725C29.1928 3.83558 29.8684 3.11203 30.6987 3.11203H42.2082L46.0183 8.58683C46.6967 9.56162 47.0702 10.7661 47.0702 11.9783V13.2056H47.0703Z" fill="#130900"/>
</svg>
